<?xml version="1.0" standalone="no"?>
<!DOCTYPE svg PUBLIC "-//W3C//DTD SVG 20010904//EN"
 "http://www.w3.org/TR/2001/REC-SVG-20010904/DTD/svg10.dtd">
<svg version="1.0" xmlns="http://www.w3.org/2000/svg"
 width="225.000000pt" height="225.000000pt" viewBox="0 0 225.000000 225.000000"
 preserveAspectRatio="xMidYMid meet">
<metadata>
Created by potrace 1.14, written by Peter Selinger 2001-2017
</metadata>
<g transform="translate(0.000000,225.000000) scale(0.100000,-0.100000)"
fill="#000000" stroke="none">
<path d="M751 2220 c-218 -30 -438 -83 -631 -151 -122 -43 -117 -36 -85 -108
15 -33 29 -61 30 -61 1 0 35 14 76 30 158 65 378 124 589 157 165 26 626 25
790 0 209 -33 422 -91 607 -166 l53 -21 31 61 c16 34 28 63 26 66 -14 13 -250
89 -383 123 -250 65 -390 82 -694 86 -222 3 -289 0 -409 -16z"/>
<path d="M740 2015 c-152 -21 -293 -53 -418 -94 -140 -47 -212 -77 -212 -90 0
-20 144 -140 210 -175 72 -38 90 -39 90 -6 0 34 56 86 111 104 29 9 105 19
169 23 l117 6 7 -34 c8 -41 117 -649 227 -1263 44 -248 81 -451 82 -452 1 -1
28 145 60 324 31 180 84 478 117 662 33 184 77 431 97 549 l38 214 115 -6
c184 -10 271 -49 286 -126 4 -17 11 -31 16 -31 37 0 200 111 252 172 l37 42
-43 22 c-139 70 -449 147 -678 169 l-65 6 -114 -141 c-63 -77 -115 -140 -117
-140 -1 0 -55 63 -119 140 -130 158 -107 147 -265 125z"/>
</g>
</svg>
